:SAMPLES-PER-SECOND 30
:FULLY-SPECIFIED
:DEGREES
700
root  14.5053 38.1154 2.71444 -80.0458 -83.9365 72.9152
RightUpLeg  -18.4658 -7.00803 -5.6033
RightLeg  -1.18587 8.6421 -0.68412
RightFoot  -5.25307 -0.432934 7.45196
RightToes  1.45519e-009 0 -3.6325e-017
Spine  6.84959 -0.190364 -4.93374
Spine1  6.01168 -0.531227 0.306255
HEad  -3.60507 -12.0578 -2.35442
LeftShoulder1  -0.853239 5.6585 -33.4256
LeftArm  6.2796 6.28101 -38.9869
LeftForeArm  19.1981 -27.1351 -4.80823
LeftHand  -0.00548712 9.59877 1.25033
RightShoulder  -1.325 -6.90617 32.4213
RightArm  21.1164 -9.2628 43.1871
RightForeArm  19.6112 11.31 7.80872
RightHand  0.0303011 3.2304 0.176877
LeftUpLeg  13.3807 5.73807 -7.46059
LeftLeg  14.2918 1.43421 0.40619
LeftFoot  -19.9069 0.561574 5.89002
LeftToes  -2.53752e-010 -2.07034e-011 -2.70101e-011
701
root  13.1194 37.8261 2.62957 -73.5974 -84.1016 66.4228
RightUpLeg  -20.0078 -6.73687 -5.24793
RightLeg  4.32126 3.63561 -0.114955
RightFoot  -3.52249 -0.351658 4.84076
RightToes  1.45519e-009 0 -3.6325e-017
Spine  6.73788 -0.328649 -4.10869
Spine1  6.57948 -0.737564 0.644744
HEad  -4.73878 -11.9917 -2.79224
LeftShoulder1  -0.86845 5.6917 -33.5178
LeftArm  6.04354 6.20025 -39.5426
LeftForeArm  18.4134 -25.5911 -4.49755
LeftHand  0.016524 9.04035 1.92434
RightShoulder  -1.28094 -6.80487 32.2783
RightArm  19.959 -8.21557 43.162
RightForeArm  20.1684 10.2701 8.00067
RightHand  -0.0135988 3.61286 -0.428488
LeftUpLeg  15.5539 5.50803 -6.79433
LeftLeg  14.9287 1.04531 0.741524
LeftFoot  -22.048 0.633146 5.3386
LeftToes  -2.53752e-010 -2.07034e-011 -2.70101e-011
702
root  11.6578 37.6468 2.51497 -58.8221 -84.3338 51.7616
RightUpLeg  -21.2051 -7.01406 -4.36508
RightLeg  10.0845 -0.0621165 -0.0611885
RightFoot  0.668959 -0.137165 1.45627
RightToes  1.45519e-009 0 -3.6325e-017
Spine  6.35526 -0.791388 -2.93715
Spine1  6.96154 -1.39202 1.48587
HEad  -5.33896 -11.885 -3.42774
LeftShoulder1  -0.853737 5.65685 -33.468
LeftArm  6.49694 6.98069 -39.9778
LeftForeArm  17.2307 -23.8281 -4.24964
LeftHand  0.0322449 10.2063 2.02639
RightShoulder  -1.29994 -6.84607 32.3717
RightArm  20.0493 -7.3478 42.6947
RightForeArm  20.5666 9.94683 8.12088
RightHand  -0.00283027 3.06658 -0.260819
LeftUpLeg  17.6588 4.42596 -5.52524
LeftLeg  15.3464 0.704498 0.956345
LeftFoot  -23.2426 0.541981 3.86516
LeftToes  -2.53752e-010 -2.07034e-011 -2.70101e-011
703
root  10.1172 37.5308 2.3703 -38.7996 -84.5252 31.7384
RightUpLeg  -21.9114 -8.31672 -2.82781
RightLeg  14.8396 -0.00157783 0.132085
RightFoot  6.75956 0.118905 -0.523825
RightToes  1.45519e-009 0 -3.6325e-017
Spine  6.2116 -1.09122 -1.19443
Spine1  6.81052 -1.922 2.6063
HEad  -6.86059 -9.73298 -3.87626
LeftShoulder1  -0.913512 5.75986 -34.307
LeftArm  7.87147 7.20279 -39.5571
LeftForeArm  16.9225 -21.3059 -4.45237
LeftHand  -0.0231441 9.98394 0.7441
RightShoulder  -1.34191 -6.9408 32.5127
RightArm  20.0187 -6.97311 41.7479
RightForeArm  19.8901 10.1833 8.01138
RightHand  -0.0331146 3.57612 -0.679626
LeftUpLeg  19.4026 2.43831 -3.65288
LeftLeg  16.8582 0.515489 0.833833
LeftFoot  -23.755 0.258843 1.07335
LeftToes  -2.53752e-010 -2.07034e-011 -2.70101e-011
704
root  8.52506 37.4024 2.25209 -24.0414 -85.4964 16.8454
RightUpLeg  -22.8372 -8.46384 -0.880862
RightLeg  21.3114 1.66414 0.46229
RightFoot  6.02671 0.330435 -1.91355
RightToes  1.45519e-009 0 -3.6325e-017
Spine  5.72641 -1.04849 2.305
Spine1  6.99443 -1.35337 1.27494
HEad  -10.9497 -1.53067 -4.19187
LeftShoulder1  -0.893236 5.71077 -34.2823
LeftArm  6.14064 8.06672 -39.8328
LeftForeArm  19.9513 -18.6542 -5.4451
LeftHand  -0.0243228 10.6454 0.712523
RightShoulder  -1.41572 -7.07011 33.1696
RightArm  19.5646 -5.90571 40.936
RightForeArm  19.6998 9.85024 8.00524
RightHand  0.00980439 3.30709 -0.114651
LeftUpLeg  20.658 1.69393 -1.44668
LeftLeg  19.8404 0.153821 0.370689
LeftFoot  -23.3231 -0.0939284 -2.22947
LeftToes  -2.53752e-010 -2.07034e-011 -2.70101e-011
705
root  7.00037 37.3175 2.10746 -6.3147 -87.0455 -0.755295
RightUpLeg  -23.0496 -7.43354 1.08941
RightLeg  25.811 1.77348 0.70213
RightFoot  4.02718 0.585354 -4.12562
RightToes  1.45519e-009 0 -3.6325e-017
Spine  5.27694 -0.687792 5.30622
Spine1  7.0592 -0.525828 0.762463
HEad  -10.8022 -2.27063 -4.22723
LeftShoulder1  -0.941265 5.79859 -34.8203
LeftArm  3.32167 9.62837 -39.5003
LeftForeArm  24.0133 -16.5621 -6.23313
LeftHand  -0.0841602 10.4073 -0.59618
RightShoulder  -1.31581 -6.86525 32.6202
RightArm  17.9723 -4.60242 41.4876
RightForeArm  20.0414 8.33754 8.10174
RightHand  -0.0165279 2.80425 -0.450152
LeftUpLeg  20.1756 2.40934 0.965716
LeftLeg  25.1318 -0.868064 -0.142617
LeftFoot  -20.8655 -0.417225 -6.69421
LeftToes  -2.53752e-010 -2.07034e-011 -2.70101e-011
706
root  5.63816 37.3415 1.89406 15.0562 -86.8908 -21.8123
RightUpLeg  -22.4193 -7.12051 2.62217
RightLeg  28.4415 1.22866 0.481442
RightFoot  0.832078 0.500216 -4.61532
RightToes  1.45519e-009 0 -3.6325e-017
Spine  5.28571 -0.801042 7.33212
Spine1  6.66637 -0.225176 0.786846
HEad  -10.7191 -2.22667 -3.85354
LeftShoulder1  -0.952497 5.82728 -34.7938
LeftArm  1.47577 11.7972 -39.4343
LeftForeArm  26.0463 -15.7533 -6.37762
LeftHand  -0.108833 10.7688 -1.0291
RightShoulder  -1.32265 -6.87117 32.7493
RightArm  17.034 -2.87163 41.9161
RightForeArm  20.8899 7.43378 8.05787
RightHand  -0.025218 2.83614 -0.560029
LeftUpLeg  16.8926 3.24176 3.89046
LeftLeg  33.52 -2.39203 -1.34176
LeftFoot  -14.4701 -0.201654 -10.5934
LeftToes  -2.53752e-010 -2.07034e-011 -2.70101e-011
707
root  4.40563 37.4711 1.67612 26.6402 -84.9151 -32.8924
RightUpLeg  -21.1432 -7.64009 4.2218
RightLeg  29.2652 0.235051 -0.103313
RightFoot  -1.71412 0.380608 -4.65573
RightToes  1.45519e-009 0 -3.6325e-017
Spine  5.11632 -1.26958 8.99048
Spine1  6.3322 -0.541012 1.28427
HEad  -11.1984 -2.46606 -3.5219
LeftShoulder1  -0.971625 5.86564 -34.9373
LeftArm  0.841552 12.7899 -39.5577
LeftForeArm  26.9432 -14.986 -6.6817
LeftHand  -0.129552 10.8019 -1.46745
RightShoulder  -1.31999 -6.88212 32.5477
RightArm  16.1706 -1.13372 42.5195
RightForeArm  20.1292 7.66407 7.7922
RightHand  -0.0617198 3.65327 -1.05068
LeftUpLeg  10.8562 2.254 6.36018
LeftLeg  43.8745 -1.71794 -1.30528
LeftFoot  -3.1263 0.679167 -10.0166
LeftToes  -2.53752e-010 -2.07034e-011 -2.70101e-011
